<svg width="1024" height="1024" viewBox="0 0 1024 1024" fill="none" xmlns="http://www.w3.org/2000/svg">
<g clip-path="url(#clip0_709_361)">
<path d="M0 0H1024V1024H0V0ZM765.4 195.67C766.56 197.12 767.87 198.43 769.36 199.55C773.27 202.52 778.08 204.14 783 204.02C807.36 203.97 831.74 204.02 856.1 204L857.62 203.99C847.22 213.85 837.64 224.38 827.57 234.56C817.24 244.97 807.34 255.58 796.34 265.32C795.02 266.44 793.94 267.4 792.09 267.34C757.4 267.35 722.54 267.22 687.86 267.39C693.1 262.75 697.74 257.6 702.3 252.32C707.24 247.14 711.73 240.48 711.05 232.99C711.13 225.73 704.95 219.76 698.5 217.49C692.07 215.74 685.04 216.25 679.88 220.84C670.79 229.1 661.79 237.43 653.48 246.49C645.27 255.53 636.41 264.15 627.53 272.53C624.22 275.74 620.85 278.89 619.53 283.47C618.07 290.12 618.86 297.15 623.76 302.22C632.85 311.45 642.08 320.59 651.24 329.76C657.04 335.65 663.52 340.79 669.26 346.74C674.18 351.39 678.98 357.32 685.48 359.66C694.75 362.58 705.77 357.37 709.63 348.53C711.8 343.56 711.4 337.81 709.07 332.97C707.21 328.76 703.02 325.46 699.83 322.17C695.63 317.9 691.14 313.9 687.06 309.52C719.64 309.35 752.24 309.65 784.81 309.38C784.72 340.22 784.69 371.07 784.81 401.92C780.08 398 776.13 393.3 771.51 389.26C768.02 386.07 763.83 383.96 759.01 384.09C671.01 384.08 583 384.09 495 384.09C487.17 384.14 479.11 385.06 471.7 387.67C453.71 393.84 438.74 408 431.71 425.69C428.49 433.47 427.39 441.63 427.27 450C427.27 541.33 427.27 632.67 427.28 724C427.2 732.9 427.5 742.41 429.93 751.01C436.7 775.77 457.23 795.65 481.99 802.14C488.91 804.12 495.85 804.45 503 804.56C601 804.56 699.01 804.59 797.02 804.53C807.15 804.62 817.08 803.39 826.5 799.5C846.54 791.66 862.51 774.82 869.49 754.48C872.63 745.88 873.32 737.01 873.54 727.93C873.65 633.22 873.45 538.48 873.67 443.78C862.7 454.76 851.73 465.77 840.88 476.88C839.8 478.15 838.45 479.1 838.54 480.94C838.33 485.62 838.38 490.32 838.31 495C838.12 566.67 838.27 638.33 838.21 710C838.16 717.98 838.42 726.05 837.8 734.01C836.26 749.07 825.95 762.72 811.43 767.44C806.73 769.14 801.94 769.22 797 769.18C698.33 769.15 599.66 769.22 501 769.15C491.81 769.46 482.64 766.38 475.75 760.25C472.78 757.71 470.43 754.69 468.12 751.57C464.68 745.56 462.55 738.99 462.43 732.02C462.43 640.35 462.45 548.67 462.42 457C462.47 452.4 462.13 447.5 462.94 442.99C463.55 439.11 465.25 435.86 467.1 432.46C472.77 424.85 481.38 419.84 491 419.87C572.67 419.87 654.33 419.88 736 419.88C738.96 419.91 741.99 419.69 744.92 420.05C747.54 421.54 749.58 424.18 751.75 426.25C764.79 439.21 777.63 452.39 790.9 465.1C795.24 469.17 799.69 473.11 806 473.24C812.34 473.79 818.09 470.88 822.26 466.25C835.24 451.87 849.35 438.73 862.87 424.87C867.52 419.95 872.96 416.46 874.69 409.52C875.94 402.36 874.57 394.93 869.66 389.39C863.89 383.28 853.91 382.08 847.02 387.09C839.92 392.65 833.58 399.37 826.98 405.5V404.2C827.05 366.92 826.91 329.53 827.04 292.27L828.48 290.76C842.54 276.38 857.08 262.51 871.25 248.25C877.13 242.49 882.82 236.53 888.85 230.93C888.49 255.28 888.78 279.65 888.67 304C888.54 309.46 889.58 314.67 893.02 319.02C901.24 330.15 921.4 327.93 927.54 315.73C929.19 312.65 930.13 309.52 930.03 306C930.01 264.67 930.03 223.33 930.04 182C929.9 178.16 930.66 174.66 928.75 171.25C927.44 168.89 925.86 167 923.73 165.34C920.49 163.06 917.02 161.68 913 161.81C868.7 161.85 824.28 161.75 780 161.85C769.74 161.76 761.13 170.92 760.94 181C760.55 186.38 762.24 191.36 765.4 195.67ZM157.13 369.34C149.51 377.99 143.52 388.28 138.76 398.75C135.22 405.92 133.23 413.35 131.1 421.01C129.69 426.23 128.3 431.61 128.01 437C127.75 442.03 126.86 446.95 126.98 452C127.04 460.61 126.58 469.36 127.66 477.84C128.46 495.29 135.01 512.62 142.99 528C145.64 533.5 149.2 538.28 152.79 543.17C156.29 547.73 159.68 552.2 163.76 556.25C178.16 570.18 195.54 580.88 214.5 587.39C227.4 592.05 240.87 594.88 254.51 596.21C242.98 606.61 237.03 621.35 236.49 636.74C225.69 639.54 214.26 640.08 203.2 638.69C192.17 637.08 181.38 631.34 174.38 622.58C165.86 611.92 159.88 600.55 150.27 590.73C142.74 583.36 134.67 576.94 124.65 573.32C118.99 570.9 112.72 570.11 106.74 571.65C102.82 572.79 99.97 575.76 99.96 579.98C99.69 584.31 103.23 587.34 106.38 589.7C113.91 594.97 121.79 598.84 127.83 606.14C134.65 614.01 137.58 624.92 141.46 634.53C145.55 644.69 150.27 654.12 157.77 662.22C168.73 673.35 183.39 680.26 198.85 682.17C211.16 684.25 224.62 682.13 236.81 679.79C236.59 693.86 236.87 707.94 236.75 722.01C236.64 728.37 234.86 735.57 229.69 739.74C223.85 744.17 215.13 747.26 209.81 752.84C206.79 755.88 205.98 760.58 207.44 764.55C209 768.12 212.33 770.05 215.98 770.94C220.31 771.79 224.61 771.85 229 771.85C284 771.84 339.01 771.93 394 771.86C399.22 771.76 405.93 771.51 410.28 768.28C415.18 764.69 415.33 757.04 411.22 752.8C405.74 747.48 397.48 744.55 391.83 740.19C386.57 736.01 384.69 729.52 384.7 723.01C384.56 694.67 384.73 666.31 384.6 637.98C384.62 622.48 378.08 606.78 366.71 596.18C377.66 594.41 389.69 593.24 399.9 588.93C402.4 587.94 405 587.47 407.47 586.4C407.78 582.96 407.55 579.45 407.59 576C407.63 533 407.59 489.99 407.64 447C407.42 436.12 410.72 424.99 415.13 415.13C421.79 400.9 432.18 388.15 445.04 379.09C451.46 374.79 456.95 369.42 460.5 362.48C464.48 354.52 465.71 344.8 466.24 336.01C467.3 320.77 464.61 305.84 459.6 291.48C458.81 289.53 458.33 287.45 456.64 286.08C449.58 285.22 442.16 286.33 435.4 288.45C421.83 292.76 409.77 299.36 397.62 306.67C391.09 310.62 385.01 315.17 378.91 319.72C372.97 318.27 367.21 316.36 361.38 314.56C350.76 312.06 339.81 310.79 329 309.34C319.44 308.6 310.41 307.56 300.84 308.3C295.21 308.85 289.59 308.9 283.99 309.78C273.01 311.41 261.59 312.6 251 315.94C246.51 317.19 242.01 318.03 237.7 319.88C221.8 308 205.42 297.47 186.93 290.02C178.62 286.78 169.9 285.12 160.96 285.79C158.07 285.75 157.23 289.13 156.24 291.25C151.75 303.52 148.66 316.88 148.98 330C149.92 343.68 151.11 356.8 157.13 369.34ZM552.49 463.58C535.62 466.35 521.43 480.75 517.09 497C514.02 509.78 516.04 524.33 524.03 535C530.35 543.34 539.21 549.72 549.29 552.64C555.86 554.61 563.1 554.5 569.85 553.75C585.67 550.69 599.4 538.62 604.28 523.21C607.59 512.9 607.17 501.08 602.95 491.09C598.55 480.95 590.57 472.34 580.78 467.19C572.02 462.74 562.06 462.14 552.49 463.58ZM602.81 632.32C593.78 622.98 585.4 612.98 576.27 603.73C572.38 599.77 568.25 596.1 562.95 594.15C555.11 591.61 545.87 592.87 540.06 599.07C521.1 619.45 502.12 639.89 483.97 661C484.03 683.66 483.99 706.34 483.99 729C483.87 736.12 488.36 743.51 495.27 745.75C500.67 746.95 506.49 746.72 512 746.82C603 746.85 694 746.83 785 746.83C790.28 746.82 795.75 746.92 801.01 746.36C809.34 746.24 816.09 738.04 816.02 730.01C815.97 697.16 816.02 664.29 815.99 631.45C787.42 597.28 758.13 563.66 729.22 529.79C725.42 525.48 721.55 521.75 715.79 520.29C708.54 518.76 700.92 521.73 695.57 526.61C692 530 688.82 533.84 685.59 537.56C674.85 549.5 664.42 561.73 653.73 573.72C636.67 593.17 619.47 612.53 602.81 632.32Z" fill="#FBFBFA" stroke="#FBFBFA" stroke-width="17.7778"/>
<path d="M780 161.85C824.28 161.75 868.7 161.85 913 161.81C917.02 161.68 920.49 163.06 923.73 165.34C921.21 165.82 919.33 164.66 917.02 163.91C914.72 163.03 912.44 163.02 910 162.94C869.67 162.93 829.32 162.97 789 162.93C782.22 162.79 775.62 162.71 769.86 166.84C762.75 171.99 760.59 182.08 764.06 189.97C764.81 191.98 766.05 193.43 765.4 195.67C762.24 191.36 760.55 186.38 760.94 181C761.13 170.92 769.74 161.76 780 161.85Z" fill="#FBFBFA" stroke="#050505" stroke-width="17.7778"/>
<path d="M789 162.93C829.32 162.97 869.67 162.93 910 162.94C912.44 163.02 914.72 163.03 917.02 163.91C919.33 164.66 921.21 165.82 923.73 165.34C925.86 167 927.44 168.89 928.75 171.25C928.46 173.19 928.35 175.06 928.55 177.02C929 181.69 928.67 186.31 928.78 191C928.7 229.06 928.84 266.95 928.69 305.03C928.55 308.65 927.34 312.05 927.54 315.73C921.4 327.93 901.24 330.15 893.02 319.02C889.58 314.67 888.54 309.46 888.67 304C888.78 279.65 888.49 255.28 888.85 230.93C882.82 236.53 877.13 242.49 871.25 248.25C857.08 262.51 842.54 276.38 828.48 290.76L826.62 289.88C824.44 293.82 825.17 297.69 825.09 302C825.17 336.64 824.89 371.3 825.21 405.93C825.8 405.36 826.39 404.78 826.98 404.2V405.5C833.58 399.37 839.92 392.65 847.02 387.09C853.91 382.08 863.89 383.28 869.66 389.39C874.57 394.93 875.94 402.36 874.69 409.52C872.96 416.46 867.52 419.95 862.87 424.87C849.35 438.73 835.24 451.87 822.26 466.25C818.09 470.88 812.34 473.79 806 473.24C799.69 473.11 795.24 469.17 790.9 465.1C777.63 452.39 764.79 439.21 751.75 426.25C749.58 424.18 747.54 421.54 744.92 420.05C741.99 419.69 738.96 419.91 736 419.88C654.33 419.88 572.67 419.87 491 419.87C481.38 419.84 472.77 424.85 467.1 432.46C463.44 434.15 462.89 437.42 461.81 440.91C460.58 445.66 461.24 451.11 461.13 456C461.07 546.66 461.19 637.35 461.07 728C460.55 735.49 461.87 742.2 464.98 748.99C465.61 750.46 466.91 750.65 468.12 751.57C470.43 754.69 472.78 757.71 475.75 760.25C482.64 766.38 491.81 769.46 501 769.15C599.66 769.22 698.33 769.15 797 769.18C801.94 769.22 806.73 769.14 811.43 767.44C825.95 762.72 836.26 749.07 837.8 734.01C838.42 726.05 838.16 717.98 838.21 710C838.27 638.33 838.12 566.67 838.31 495C838.38 490.32 838.33 485.62 838.54 480.94C838.45 479.1 839.8 478.15 840.88 476.88C851.73 465.77 862.7 454.76 873.67 443.78C873.45 538.48 873.65 633.22 873.54 727.93C873.32 737.01 872.63 745.88 869.49 754.48C862.51 774.82 846.54 791.66 826.5 799.5C817.08 803.39 807.15 804.62 797.02 804.53C699.01 804.59 601 804.56 503 804.56C495.85 804.45 488.91 804.12 481.99 802.14C457.23 795.65 436.7 775.77 429.93 751.01C427.5 742.41 427.2 732.9 427.28 724C427.27 632.67 427.27 541.33 427.27 450C427.39 441.63 428.49 433.47 431.71 425.69C438.74 408 453.71 393.84 471.7 387.67C479.11 385.06 487.17 384.14 495 384.09C583 384.09 671.01 384.08 759.01 384.09C763.83 383.96 768.02 386.07 771.51 389.26C771.38 392.12 775.09 394.22 776.78 396.22C779.64 398.66 781.83 402.68 785.75 403.04C786.05 374.37 785.78 345.68 785.89 317C785.9 314.08 785.81 311.17 785.74 308.26C755.84 307.96 725.91 308.26 696 308.12C692.91 308.11 689.82 308.19 686.73 308.29L687.06 309.52C691.14 313.9 695.63 317.9 699.83 322.17C703.02 325.46 707.21 328.76 709.07 332.97C711.4 337.81 711.8 343.56 709.63 348.53C705.77 357.37 694.75 362.58 685.48 359.66C678.98 357.32 674.18 351.39 669.26 346.74C663.52 340.79 657.04 335.65 651.24 329.76C642.08 320.59 632.85 311.45 623.76 302.22C618.86 297.15 618.07 290.12 619.53 283.47C620.85 278.89 624.22 275.74 627.53 272.53C636.41 264.15 645.27 255.53 653.48 246.49C661.79 237.43 670.79 229.1 679.88 220.84C685.04 216.25 692.07 215.74 698.5 217.49C704.95 219.76 711.13 225.73 711.05 232.99C711.73 240.48 707.24 247.14 702.3 252.32C697.74 257.6 693.1 262.75 687.86 267.39C722.54 267.22 757.4 267.35 792.09 267.34C793.94 267.4 795.02 266.44 796.34 265.32C807.34 255.58 817.24 244.97 827.57 234.56C837.64 224.38 847.22 213.85 857.62 203.99L856.1 204C856.68 203.42 857.25 202.85 857.83 202.28C837.89 201.94 817.94 202.21 798 202.17C791.68 202.1 785.29 202.53 778.99 202.03C775.42 201.76 772.77 198.99 769.36 199.55C767.87 198.43 766.56 197.12 765.4 195.67C766.05 193.43 764.81 191.98 764.06 189.97C760.59 182.08 762.75 171.99 769.86 166.84C775.62 162.71 782.22 162.79 789 162.93Z" fill="#FBFBFA" stroke="#0F100F" stroke-width="17.7778"/>
<path d="M928.75 171.25C930.66 174.66 929.9 178.16 930.04 182C930.03 223.33 930.01 264.67 930.03 306C930.13 309.52 929.19 312.65 927.54 315.73C927.34 312.05 928.55 308.65 928.69 305.03C928.84 266.95 928.7 229.06 928.78 191C928.67 186.31 929 181.69 928.55 177.02C928.35 175.06 928.46 173.19 928.75 171.25Z" fill="#FBFBFA" stroke="#020202" stroke-width="17.7778"/>
<path d="M778.99 202.03C785.29 202.53 791.68 202.1 798 202.17C817.94 202.21 837.89 201.94 857.83 202.28C857.25 202.85 856.68 203.42 856.1 204C831.74 204.02 807.36 203.97 783 204.02C778.08 204.14 773.27 202.52 769.36 199.55C772.77 198.99 775.42 201.76 778.99 202.03Z" fill="#FBFBFA" stroke="#030404" stroke-width="17.7778"/>
<path d="M160.96 285.79C169.9 285.12 178.62 286.78 186.93 290.02C205.42 297.47 221.8 308 237.7 319.88C242.01 318.03 246.51 317.19 251 315.94C261.59 312.6 273.01 311.41 283.99 309.78C289.59 308.9 295.21 308.85 300.84 308.3C310.41 307.56 319.44 308.6 329 309.34C339.81 310.79 350.76 312.06 361.38 314.56C367.21 316.36 372.97 318.27 378.91 319.72C385.01 315.17 391.09 310.62 397.62 306.67C409.77 299.36 421.83 292.76 435.4 288.45C442.16 286.33 449.58 285.22 456.64 286.08C458.33 287.45 458.81 289.53 459.6 291.48C464.61 305.84 467.3 320.77 466.24 336.01C465.71 344.8 464.48 354.52 460.5 362.48C456.95 369.42 451.46 374.79 445.04 379.09C432.18 388.15 421.79 400.9 415.13 415.13C410.72 424.99 407.42 436.12 407.64 447C407.59 489.99 407.63 533 407.59 576C407.55 579.45 407.78 582.96 407.47 586.4C405 587.47 402.4 587.94 399.9 588.93C389.69 593.24 377.66 594.41 366.71 596.18C378.08 606.78 384.62 622.48 384.6 637.98C384.73 666.31 384.56 694.67 384.7 723.01C384.69 729.52 386.57 736.01 391.83 740.19C397.48 744.55 405.74 747.48 411.22 752.8C415.33 757.04 415.18 764.69 410.28 768.28C405.93 771.51 399.22 771.76 394 771.86C339.01 771.93 284 771.84 229 771.85C224.61 771.85 220.31 771.79 215.98 770.94C212.33 770.05 209 768.12 207.44 764.55C205.98 760.58 206.79 755.88 209.81 752.84C215.13 747.26 223.85 744.17 229.69 739.74C234.86 735.57 236.64 728.37 236.75 722.01C236.87 707.94 236.59 693.86 236.81 679.79C224.62 682.13 211.16 684.25 198.85 682.17C183.39 680.26 168.73 673.35 157.77 662.22C150.27 654.12 145.55 644.69 141.46 634.53C137.58 624.92 134.65 614.01 127.83 606.14C121.79 598.84 113.91 594.97 106.38 589.7C103.23 587.34 99.69 584.31 99.96 579.98C99.97 575.76 102.82 572.79 106.74 571.65C112.72 570.11 118.99 570.9 124.65 573.32C134.67 576.94 142.74 583.36 150.27 590.73C159.88 600.55 165.86 611.92 174.38 622.58C181.38 631.34 192.17 637.08 203.2 638.69C214.26 640.08 225.69 639.54 236.49 636.74C237.03 621.35 242.98 606.61 254.51 596.21C240.87 594.88 227.4 592.05 214.5 587.39C195.54 580.88 178.16 570.18 163.76 556.25C159.68 552.2 156.29 547.73 152.79 543.17C149.2 538.28 145.64 533.5 142.99 528C135.01 512.62 128.46 495.29 127.66 477.84C126.58 469.36 127.04 460.61 126.98 452C126.86 446.95 127.75 442.03 128.01 437C128.3 431.61 129.69 426.23 131.1 421.01C133.23 413.35 135.22 405.92 138.76 398.75C143.52 388.28 149.51 377.99 157.13 369.34C151.11 356.8 149.92 343.68 148.98 330C148.66 316.88 151.75 303.52 156.24 291.25C157.23 289.13 158.07 285.75 160.96 285.79Z" fill="#FBFBFA" stroke="#0F0F0F" stroke-width="17.7778"/>
<path d="M826.62 289.88L828.48 290.76L827.04 292.27C826.91 329.53 827.05 366.92 826.98 404.2C826.39 404.78 825.8 405.36 825.21 405.93C824.89 371.3 825.17 336.64 825.09 302C825.17 297.69 824.44 293.82 826.62 289.88Z" fill="#FBFBFA" stroke="#050404" stroke-width="17.7778"/>
<path d="M686.73 308.29C689.82 308.19 692.91 308.11 696 308.12C725.91 308.26 755.84 307.96 785.74 308.26C785.81 311.17 785.9 314.08 785.89 317C785.78 345.68 786.05 374.37 785.75 403.04C781.83 402.68 779.64 398.66 776.78 396.22C775.09 394.22 771.38 392.12 771.51 389.26C776.13 393.3 780.08 398 784.81 401.92C784.69 371.07 784.72 340.22 784.81 309.38C752.24 309.65 719.64 309.35 687.06 309.52L686.73 308.29Z" fill="#FBFBFA" stroke="#010101" stroke-width="17.7778"/>
<path d="M467.1 432.46C465.25 435.86 463.55 439.11 462.94 442.99C462.13 447.5 462.47 452.4 462.42 457C462.45 548.67 462.43 640.35 462.43 732.02C462.55 738.99 464.68 745.56 468.12 751.57C466.91 750.65 465.61 750.46 464.98 748.99C461.87 742.2 460.55 735.49 461.07 728C461.19 637.35 461.07 546.66 461.13 456C461.24 451.11 460.58 445.66 461.81 440.91C462.89 437.42 463.44 434.15 467.1 432.46Z" fill="#FBFBFA" stroke="#040404" stroke-width="17.7778"/>
<path d="M552.49 463.58C562.06 462.14 572.02 462.74 580.78 467.19C590.57 472.34 598.55 480.95 602.95 491.09C607.17 501.08 607.59 512.9 604.28 523.21C599.4 538.62 585.67 550.69 569.85 553.75C563.1 554.5 555.86 554.61 549.29 552.64C539.21 549.72 530.35 543.34 524.03 535C516.04 524.33 514.02 509.78 517.09 497C521.43 480.75 535.62 466.35 552.49 463.58Z" fill="#FBFBFA" stroke="#0F100F" stroke-width="17.7778"/>
<path d="M715.79 520.29C721.55 521.75 725.42 525.48 729.22 529.79C758.13 563.66 787.42 597.28 815.99 631.45C816.02 664.29 815.97 697.16 816.02 730.01C816.09 738.04 809.34 746.24 801.01 746.36C795.75 746.92 790.28 746.82 785 746.83C694 746.83 603 746.85 512 746.82C506.49 746.72 500.67 746.95 495.27 745.75C488.36 743.51 483.87 736.12 483.99 729C483.99 706.34 484.03 683.66 483.97 661C502.12 639.89 521.1 619.45 540.06 599.07C545.87 592.87 555.11 591.61 562.95 594.15C568.25 596.1 572.38 599.77 576.27 603.73C585.4 612.98 593.78 622.98 602.81 632.32C619.47 612.53 636.67 593.17 653.73 573.72C664.42 561.73 674.85 549.5 685.59 537.56C688.82 533.84 692 530 695.57 526.61C700.92 521.73 708.54 518.76 715.79 520.29Z" fill="#FBFBFA" stroke="#0F0F0F" stroke-width="17.7778"/>
<path d="M0 0H1024V1024H0V0ZM765.4 195.67C766.56 197.12 767.87 198.43 769.36 199.55C773.27 202.52 778.08 204.14 783 204.02C807.36 203.97 831.74 204.02 856.1 204L857.62 203.99C847.22 213.85 837.64 224.38 827.57 234.56C817.24 244.97 807.34 255.58 796.34 265.32C795.02 266.44 793.94 267.4 792.09 267.34C757.4 267.35 722.54 267.22 687.86 267.39C693.1 262.75 697.74 257.6 702.3 252.32C707.24 247.14 711.73 240.48 711.05 232.99C711.13 225.73 704.95 219.76 698.5 217.49C692.07 215.74 685.04 216.25 679.88 220.84C670.79 229.1 661.79 237.43 653.48 246.49C645.27 255.53 636.41 264.15 627.53 272.53C624.22 275.74 620.85 278.89 619.53 283.47C618.07 290.12 618.86 297.15 623.76 302.22C632.85 311.45 642.08 320.59 651.24 329.76C657.04 335.65 663.52 340.79 669.26 346.74C674.18 351.39 678.98 357.32 685.48 359.66C694.75 362.58 705.77 357.37 709.63 348.53C711.8 343.56 711.4 337.81 709.07 332.97C707.21 328.76 703.02 325.46 699.83 322.17C695.63 317.9 691.14 313.9 687.06 309.52C719.64 309.35 752.24 309.65 784.81 309.38C784.72 340.22 784.69 371.07 784.81 401.92C780.08 398 776.13 393.3 771.51 389.26C768.02 386.07 763.83 383.96 759.01 384.09C671.01 384.08 583 384.09 495 384.09C487.17 384.14 479.11 385.06 471.7 387.67C453.71 393.84 438.74 408 431.71 425.69C428.49 433.47 427.39 441.63 427.27 450C427.27 541.33 427.27 632.67 427.28 724C427.2 732.9 427.5 742.41 429.93 751.01C436.7 775.77 457.23 795.65 481.99 802.14C488.91 804.12 495.85 804.45 503 804.56C601 804.56 699.01 804.59 797.02 804.53C807.15 804.62 817.08 803.39 826.5 799.5C846.54 791.66 862.51 774.82 869.49 754.48C872.63 745.88 873.32 737.01 873.54 727.93C873.65 633.22 873.45 538.48 873.67 443.78C862.7 454.76 851.73 465.77 840.88 476.88C839.8 478.15 838.45 479.1 838.54 480.94C838.33 485.62 838.38 490.32 838.31 495C838.12 566.67 838.27 638.33 838.21 710C838.16 717.98 838.42 726.05 837.8 734.01C836.26 749.07 825.95 762.72 811.43 767.44C806.73 769.14 801.94 769.22 797 769.18C698.33 769.15 599.66 769.22 501 769.15C491.81 769.46 482.64 766.38 475.75 760.25C472.78 757.71 470.43 754.69 468.12 751.57C464.68 745.56 462.55 738.99 462.43 732.02C462.43 640.35 462.45 548.67 462.42 457C462.47 452.4 462.13 447.5 462.94 442.99C463.55 439.11 465.25 435.86 467.1 432.46C472.77 424.85 481.38 419.84 491 419.87C572.67 419.87 654.33 419.88 736 419.88C738.96 419.91 741.99 419.69 744.92 420.05C747.54 421.54 749.58 424.18 751.75 426.25C764.79 439.21 777.63 452.39 790.9 465.1C795.24 469.17 799.69 473.11 806 473.24C812.34 473.79 818.09 470.88 822.26 466.25C835.24 451.87 849.35 438.73 862.87 424.87C867.52 419.95 872.96 416.46 874.69 409.52C875.94 402.36 874.57 394.93 869.66 389.39C863.89 383.28 853.91 382.08 847.02 387.09C839.92 392.65 833.58 399.37 826.98 405.5V404.2C827.05 366.92 826.91 329.53 827.04 292.27L828.48 290.76C842.54 276.38 857.08 262.51 871.25 248.25C877.13 242.49 882.82 236.53 888.85 230.93C888.49 255.28 888.78 279.65 888.67 304C888.54 309.46 889.58 314.67 893.02 319.02C901.24 330.15 921.4 327.93 927.54 315.73C929.19 312.65 930.13 309.52 930.03 306C930.01 264.67 930.03 223.33 930.04 182C929.9 178.16 930.66 174.66 928.75 171.25C927.44 168.89 925.86 167 923.73 165.34C920.49 163.06 917.02 161.68 913 161.81C868.7 161.85 824.28 161.75 780 161.85C769.74 161.76 761.13 170.92 760.94 181C760.55 186.38 762.24 191.36 765.4 195.67ZM157.13 369.34C149.51 377.99 143.52 388.28 138.76 398.75C135.22 405.92 133.23 413.35 131.1 421.01C129.69 426.23 128.3 431.61 128.01 437C127.75 442.03 126.86 446.95 126.98 452C127.04 460.61 126.58 469.36 127.66 477.84C128.46 495.29 135.01 512.62 142.99 528C145.64 533.5 149.2 538.28 152.79 543.17C156.29 547.73 159.68 552.2 163.76 556.25C178.16 570.18 195.54 580.88 214.5 587.39C227.4 592.05 240.87 594.88 254.51 596.21C242.98 606.61 237.03 621.35 236.49 636.74C225.69 639.54 214.26 640.08 203.2 638.69C192.17 637.08 181.38 631.34 174.38 622.58C165.86 611.92 159.88 600.55 150.27 590.73C142.74 583.36 134.67 576.94 124.65 573.32C118.99 570.9 112.72 570.11 106.74 571.65C102.82 572.79 99.97 575.76 99.96 579.98C99.69 584.31 103.23 587.34 106.38 589.7C113.91 594.97 121.79 598.84 127.83 606.14C134.65 614.01 137.58 624.92 141.46 634.53C145.55 644.69 150.27 654.12 157.77 662.22C168.73 673.35 183.39 680.26 198.85 682.17C211.16 684.25 224.62 682.13 236.81 679.79C236.59 693.86 236.87 707.94 236.75 722.01C236.64 728.37 234.86 735.57 229.69 739.74C223.85 744.17 215.13 747.26 209.81 752.84C206.79 755.88 205.98 760.58 207.44 764.55C209 768.12 212.33 770.05 215.98 770.94C220.31 771.79 224.61 771.85 229 771.85C284 771.84 339.01 771.93 394 771.86C399.22 771.76 405.93 771.51 410.28 768.28C415.18 764.69 415.33 757.04 411.22 752.8C405.74 747.48 397.48 744.55 391.83 740.19C386.57 736.01 384.69 729.52 384.7 723.01C384.56 694.67 384.73 666.31 384.6 637.98C384.62 622.48 378.08 606.78 366.71 596.18C377.66 594.41 389.69 593.24 399.9 588.93C402.4 587.94 405 587.47 407.47 586.4C407.78 582.96 407.55 579.45 407.59 576C407.63 533 407.59 489.99 407.64 447C407.42 436.12 410.72 424.99 415.13 415.13C421.79 400.9 432.18 388.15 445.04 379.09C451.46 374.79 456.95 369.42 460.5 362.48C464.48 354.52 465.71 344.8 466.24 336.01C467.3 320.77 464.61 305.84 459.6 291.48C458.81 289.53 458.33 287.45 456.64 286.08C449.58 285.22 442.16 286.33 435.4 288.45C421.83 292.76 409.77 299.36 397.62 306.67C391.09 310.62 385.01 315.17 378.91 319.72C372.97 318.27 367.21 316.36 361.38 314.56C350.76 312.06 339.81 310.79 329 309.34C319.44 308.6 310.41 307.56 300.84 308.3C295.21 308.85 289.59 308.9 283.99 309.78C273.01 311.41 261.59 312.6 251 315.94C246.51 317.19 242.01 318.03 237.7 319.88C221.8 308 205.42 297.47 186.93 290.02C178.62 286.78 169.9 285.12 160.96 285.79C158.07 285.75 157.23 289.13 156.24 291.25C151.75 303.52 148.66 316.88 148.98 330C149.92 343.68 151.11 356.8 157.13 369.34ZM552.49 463.58C535.62 466.35 521.43 480.75 517.09 497C514.02 509.78 516.04 524.33 524.03 535C530.35 543.34 539.21 549.72 549.29 552.64C555.86 554.61 563.1 554.5 569.85 553.75C585.67 550.69 599.4 538.62 604.28 523.21C607.59 512.9 607.17 501.08 602.95 491.09C598.55 480.95 590.57 472.34 580.78 467.19C572.02 462.74 562.06 462.14 552.49 463.58ZM602.81 632.32C593.78 622.98 585.4 612.98 576.27 603.73C572.38 599.77 568.25 596.1 562.95 594.15C555.11 591.61 545.87 592.87 540.06 599.07C521.1 619.45 502.12 639.89 483.97 661C484.03 683.66 483.99 706.34 483.99 729C483.87 736.12 488.36 743.51 495.27 745.75C500.67 746.95 506.49 746.72 512 746.82C603 746.85 694 746.83 785 746.83C790.28 746.82 795.75 746.92 801.01 746.36C809.34 746.24 816.09 738.04 816.02 730.01C815.97 697.16 816.02 664.29 815.99 631.45C787.42 597.28 758.13 563.66 729.22 529.79C725.42 525.48 721.55 521.75 715.79 520.29C708.54 518.76 700.92 521.73 695.57 526.61C692 530 688.82 533.84 685.59 537.56C674.85 549.5 664.42 561.73 653.73 573.72C636.67 593.17 619.47 612.53 602.81 632.32Z" fill="#FBFBFA"/>
<path d="M780 161.85C824.28 161.75 868.7 161.85 913 161.81C917.02 161.68 920.49 163.06 923.73 165.34C921.21 165.82 919.33 164.66 917.02 163.91C914.72 163.03 912.44 163.02 910 162.94C869.67 162.93 829.32 162.97 789 162.93C782.22 162.79 775.62 162.71 769.86 166.84C762.75 171.99 760.59 182.08 764.06 189.97C764.81 191.98 766.05 193.43 765.4 195.67C762.24 191.36 760.55 186.38 760.94 181C761.13 170.92 769.74 161.76 780 161.85Z" fill="#050505"/>
<path d="M789 162.93C829.32 162.97 869.67 162.93 910 162.94C912.44 163.02 914.72 163.03 917.02 163.91C919.33 164.66 921.21 165.82 923.73 165.34C925.86 167 927.44 168.89 928.75 171.25C928.46 173.19 928.35 175.06 928.55 177.02C929 181.69 928.67 186.31 928.78 191C928.7 229.06 928.84 266.95 928.69 305.03C928.55 308.65 927.34 312.05 927.54 315.73C921.4 327.93 901.24 330.15 893.02 319.02C889.58 314.67 888.54 309.46 888.67 304C888.78 279.65 888.49 255.28 888.85 230.93C882.82 236.53 877.13 242.49 871.25 248.25C857.08 262.51 842.54 276.38 828.48 290.76L826.62 289.88C824.44 293.82 825.17 297.69 825.09 302C825.17 336.64 824.89 371.3 825.21 405.93C825.8 405.36 826.39 404.78 826.98 404.2V405.5C833.58 399.37 839.92 392.65 847.02 387.09C853.91 382.08 863.89 383.28 869.66 389.39C874.57 394.93 875.94 402.36 874.69 409.52C872.96 416.46 867.52 419.95 862.87 424.87C849.35 438.73 835.24 451.87 822.26 466.25C818.09 470.88 812.34 473.79 806 473.24C799.69 473.11 795.24 469.17 790.9 465.1C777.63 452.39 764.79 439.21 751.75 426.25C749.58 424.18 747.54 421.54 744.92 420.05C741.99 419.69 738.96 419.91 736 419.88C654.33 419.88 572.67 419.87 491 419.87C481.38 419.84 472.77 424.85 467.1 432.46C463.44 434.15 462.89 437.42 461.81 440.91C460.58 445.66 461.24 451.11 461.13 456C461.07 546.66 461.19 637.35 461.07 728C460.55 735.49 461.87 742.2 464.98 748.99C465.61 750.46 466.91 750.65 468.12 751.57C470.43 754.69 472.78 757.71 475.75 760.25C482.64 766.38 491.81 769.46 501 769.15C599.66 769.22 698.33 769.15 797 769.18C801.94 769.22 806.73 769.14 811.43 767.44C825.95 762.72 836.26 749.07 837.8 734.01C838.42 726.05 838.16 717.98 838.21 710C838.27 638.33 838.12 566.67 838.31 495C838.38 490.32 838.33 485.62 838.54 480.94C838.45 479.1 839.8 478.15 840.88 476.88C851.73 465.77 862.7 454.76 873.67 443.78C873.45 538.48 873.65 633.22 873.54 727.93C873.32 737.01 872.63 745.88 869.49 754.48C862.51 774.82 846.54 791.66 826.5 799.5C817.08 803.39 807.15 804.62 797.02 804.53C699.01 804.59 601 804.56 503 804.56C495.85 804.45 488.91 804.12 481.99 802.14C457.23 795.65 436.7 775.77 429.93 751.01C427.5 742.41 427.2 732.9 427.28 724C427.27 632.67 427.27 541.33 427.27 450C427.39 441.63 428.49 433.47 431.71 425.69C438.74 408 453.71 393.84 471.7 387.67C479.11 385.06 487.17 384.14 495 384.09C583 384.09 671.01 384.08 759.01 384.09C763.83 383.96 768.02 386.07 771.51 389.26C771.38 392.12 775.09 394.22 776.78 396.22C779.64 398.66 781.83 402.68 785.75 403.04C786.05 374.37 785.78 345.68 785.89 317C785.9 314.08 785.81 311.17 785.74 308.26C755.84 307.96 725.91 308.26 696 308.12C692.91 308.11 689.82 308.19 686.73 308.29L687.06 309.52C691.14 313.9 695.63 317.9 699.83 322.17C703.02 325.46 707.21 328.76 709.07 332.97C711.4 337.81 711.8 343.56 709.63 348.53C705.77 357.37 694.75 362.58 685.48 359.66C678.98 357.32 674.18 351.39 669.26 346.74C663.52 340.79 657.04 335.65 651.24 329.76C642.08 320.59 632.85 311.45 623.76 302.22C618.86 297.15 618.07 290.12 619.53 283.47C620.85 278.89 624.22 275.74 627.53 272.53C636.41 264.15 645.27 255.53 653.48 246.49C661.79 237.43 670.79 229.1 679.88 220.84C685.04 216.25 692.07 215.74 698.5 217.49C704.95 219.76 711.13 225.73 711.05 232.99C711.73 240.48 707.24 247.14 702.3 252.32C697.74 257.6 693.1 262.75 687.86 267.39C722.54 267.22 757.4 267.35 792.09 267.34C793.94 267.4 795.02 266.44 796.34 265.32C807.34 255.58 817.24 244.97 827.57 234.56C837.64 224.38 847.22 213.85 857.62 203.99L856.1 204C856.68 203.42 857.25 202.85 857.83 202.28C837.89 201.94 817.94 202.21 798 202.17C791.68 202.1 785.29 202.53 778.99 202.03C775.42 201.76 772.77 198.99 769.36 199.55C767.87 198.43 766.56 197.12 765.4 195.67C766.05 193.43 764.81 191.98 764.06 189.97C760.59 182.08 762.75 171.99 769.86 166.84C775.62 162.71 782.22 162.79 789 162.93Z" fill="#0F100F"/>
<path d="M928.75 171.25C930.66 174.66 929.9 178.16 930.04 182C930.03 223.33 930.01 264.67 930.03 306C930.13 309.52 929.19 312.65 927.54 315.73C927.34 312.05 928.55 308.65 928.69 305.03C928.84 266.95 928.7 229.06 928.78 191C928.67 186.31 929 181.69 928.55 177.02C928.35 175.06 928.46 173.19 928.75 171.25Z" fill="#020202"/>
<path d="M778.99 202.03C785.29 202.53 791.68 202.1 798 202.17C817.94 202.21 837.89 201.94 857.83 202.28C857.25 202.85 856.68 203.42 856.1 204C831.74 204.02 807.36 203.97 783 204.02C778.08 204.14 773.27 202.52 769.36 199.55C772.77 198.99 775.42 201.76 778.99 202.03Z" fill="#030404"/>
<path d="M160.96 285.79C169.9 285.12 178.62 286.78 186.93 290.02C205.42 297.47 221.8 308 237.7 319.88C242.01 318.03 246.51 317.19 251 315.94C261.59 312.6 273.01 311.41 283.99 309.78C289.59 308.9 295.21 308.85 300.84 308.3C310.41 307.56 319.44 308.6 329 309.34C339.81 310.79 350.76 312.06 361.38 314.56C367.21 316.36 372.97 318.27 378.91 319.72C385.01 315.17 391.09 310.62 397.62 306.67C409.77 299.36 421.83 292.76 435.4 288.45C442.16 286.33 449.58 285.22 456.64 286.08C458.33 287.45 458.81 289.53 459.6 291.48C464.61 305.84 467.3 320.77 466.24 336.01C465.71 344.8 464.48 354.52 460.5 362.48C456.95 369.42 451.46 374.79 445.04 379.09C432.18 388.15 421.79 400.9 415.13 415.13C410.72 424.99 407.42 436.12 407.64 447C407.59 489.99 407.63 533 407.59 576C407.55 579.45 407.78 582.96 407.47 586.4C405 587.47 402.4 587.94 399.9 588.93C389.69 593.24 377.66 594.41 366.71 596.18C378.08 606.78 384.62 622.48 384.6 637.98C384.73 666.31 384.56 694.67 384.7 723.01C384.69 729.52 386.57 736.01 391.83 740.19C397.48 744.55 405.74 747.48 411.22 752.8C415.33 757.04 415.18 764.69 410.28 768.28C405.93 771.51 399.22 771.76 394 771.86C339.01 771.93 284 771.84 229 771.85C224.61 771.85 220.31 771.79 215.98 770.94C212.33 770.05 209 768.12 207.44 764.55C205.98 760.58 206.79 755.88 209.81 752.84C215.13 747.26 223.85 744.17 229.69 739.74C234.86 735.57 236.64 728.37 236.75 722.01C236.87 707.94 236.59 693.86 236.81 679.79C224.62 682.13 211.16 684.25 198.85 682.17C183.39 680.26 168.73 673.35 157.77 662.22C150.27 654.12 145.55 644.69 141.46 634.53C137.58 624.92 134.65 614.01 127.83 606.14C121.79 598.84 113.91 594.97 106.38 589.7C103.23 587.34 99.69 584.31 99.96 579.98C99.97 575.76 102.82 572.79 106.74 571.65C112.72 570.11 118.99 570.9 124.65 573.32C134.67 576.94 142.74 583.36 150.27 590.73C159.88 600.55 165.86 611.92 174.38 622.58C181.38 631.34 192.17 637.08 203.2 638.69C214.26 640.08 225.69 639.54 236.49 636.74C237.03 621.35 242.98 606.61 254.51 596.21C240.87 594.88 227.4 592.05 214.5 587.39C195.54 580.88 178.16 570.18 163.76 556.25C159.68 552.2 156.29 547.73 152.79 543.17C149.2 538.28 145.64 533.5 142.99 528C135.01 512.62 128.46 495.29 127.66 477.84C126.58 469.36 127.04 460.61 126.98 452C126.86 446.95 127.75 442.03 128.01 437C128.3 431.61 129.69 426.23 131.1 421.01C133.23 413.35 135.22 405.92 138.76 398.75C143.52 388.28 149.51 377.99 157.13 369.34C151.11 356.8 149.92 343.68 148.98 330C148.66 316.88 151.75 303.52 156.24 291.25C157.23 289.13 158.07 285.75 160.96 285.79Z" fill="#0F0F0F"/>
<path d="M826.62 289.88L828.48 290.76L827.04 292.27C826.91 329.53 827.05 366.92 826.98 404.2C826.39 404.78 825.8 405.36 825.21 405.93C824.89 371.3 825.17 336.64 825.09 302C825.17 297.69 824.44 293.82 826.62 289.88Z" fill="#050404"/>
<path d="M686.73 308.29C689.82 308.19 692.91 308.11 696 308.12C725.91 308.26 755.84 307.96 785.74 308.26C785.81 311.17 785.9 314.08 785.89 317C785.78 345.68 786.05 374.37 785.75 403.04C781.83 402.68 779.64 398.66 776.78 396.22C775.09 394.22 771.38 392.12 771.51 389.26C776.13 393.3 780.08 398 784.81 401.92C784.69 371.07 784.72 340.22 784.81 309.38C752.24 309.65 719.64 309.35 687.06 309.52L686.73 308.29Z" fill="#010101"/>
<path d="M467.1 432.46C465.25 435.86 463.55 439.11 462.94 442.99C462.13 447.5 462.47 452.4 462.42 457C462.45 548.67 462.43 640.35 462.43 732.02C462.55 738.99 464.68 745.56 468.12 751.57C466.91 750.65 465.61 750.46 464.98 748.99C461.87 742.2 460.55 735.49 461.07 728C461.19 637.35 461.07 546.66 461.13 456C461.24 451.11 460.58 445.66 461.81 440.91C462.89 437.42 463.44 434.15 467.1 432.46Z" fill="#040404"/>
<path d="M552.49 463.58C562.06 462.14 572.02 462.74 580.78 467.19C590.57 472.34 598.55 480.95 602.95 491.09C607.17 501.08 607.59 512.9 604.28 523.21C599.4 538.62 585.67 550.69 569.85 553.75C563.1 554.5 555.86 554.61 549.29 552.64C539.21 549.72 530.35 543.34 524.03 535C516.04 524.33 514.02 509.78 517.09 497C521.43 480.75 535.62 466.35 552.49 463.58Z" fill="#0F100F"/>
<path d="M715.79 520.29C721.55 521.75 725.42 525.48 729.22 529.79C758.13 563.66 787.42 597.28 815.99 631.45C816.02 664.29 815.97 697.16 816.02 730.01C816.09 738.04 809.34 746.24 801.01 746.36C795.75 746.92 790.28 746.82 785 746.83C694 746.83 603 746.85 512 746.82C506.49 746.72 500.67 746.95 495.27 745.75C488.36 743.51 483.87 736.12 483.99 729C483.99 706.34 484.03 683.66 483.97 661C502.12 639.89 521.1 619.45 540.06 599.07C545.87 592.87 555.11 591.61 562.95 594.15C568.25 596.1 572.38 599.77 576.27 603.73C585.4 612.98 593.78 622.98 602.81 632.32C619.47 612.53 636.67 593.17 653.73 573.72C664.42 561.73 674.85 549.5 685.59 537.56C688.82 533.84 692 530 695.57 526.61C700.92 521.73 708.54 518.76 715.79 520.29Z" fill="#0F0F0F"/>
</g>
<defs>
<clipPath id="clip0_709_361">
<rect width="1024" height="1024" rx="96" fill="white"/>
</clipPath>
</defs>
</svg>
